<?xml version="1.0" encoding="UTF-8"?>
<svg version="1.1" xmlns="http://www.w3.org/2000/svg" width="1003" height="249">
<path d="M0 0 C0.87140625 0.64066406 1.7428125 1.28132813 2.640625 1.94140625 C4.62124546 3.54460078 6.41207487 5.00769642 8 7 C8 7.99 8 8.98 8 10 C6.92621094 10.39832031 5.85242188 10.79664062 4.74609375 11.20703125 C3.30986242 11.74209782 1.87366638 12.27725914 0.4375 12.8125 C-0.61920898 13.20405273 -0.61920898 13.20405273 -1.69726562 13.60351562 C-5.11631161 14.87974938 -8.49921572 16.19474698 -11.84375 17.65625 C-16.25109803 19.5326457 -19.72979962 20.12744485 -24.50390625 19.6484375 C-30.50441939 19.64775508 -34.99837081 22.93145205 -40 25.9375 C-42.22317806 27.22885206 -44.44855027 28.516432 -46.67578125 29.80078125 C-47.26007401 30.13970398 -47.84436676 30.47862671 -48.44636536 30.82781982 C-55.58927191 34.95462642 -62.88983899 38.78107901 -70.1875 42.625 C-72.90563972 44.06119363 -75.62283432 45.49916939 -78.33984375 46.9375 C-78.99530182 47.2843132 -79.65075989 47.6311264 -80.32608032 47.9884491 C-86.32098235 51.16341198 -92.29288033 54.37966823 -98.25 57.625 C-99.0752417 58.07311035 -99.9004834 58.5212207 -100.75073242 58.98291016 C-107.24071242 62.52989075 -113.62517422 66.25066408 -120 70 C-112.71241022 70.02578281 -105.42483257 70.04304396 -98.13720703 70.05493164 C-95.66845256 70.05989799 -93.19970093 70.06667331 -90.73095703 70.07543945 C-78.38631461 70.11811105 -66.05743897 70.11172503 -53.72265625 69.56640625 C-52.41263138 69.50949364 -52.41263138 69.50949364 -51.07614136 69.45143127 C-44.95238715 69.14348829 -39.0067066 68.41843131 -32.97265625 67.3046875 C-28.55628133 66.85202358 -24.63749042 66.9707203 -20.8125 69.375 C-20.214375 69.91125 -19.61625 70.4475 -19 71 C-15.37261744 73.97106626 -12.69717381 74.53028262 -8 75 C-5.93976277 78.09035585 -5.57485541 79.34692828 -6.18359375 82.953125 C-8.05530566 87.64583811 -12.46239088 92.73119544 -17 95 C-19.12371419 95.15871149 -21.2521211 95.25569689 -23.38061523 95.32543945 C-24.04223632 95.34850599 -24.7038574 95.37157253 -25.38552761 95.39533806 C-26.83825764 95.44544284 -28.29106224 95.49341864 -29.74392319 95.53957176 C-32.10224619 95.61467134 -34.46031053 95.69552969 -36.81838989 95.77790833 C-40.23344975 95.89686553 -43.64856942 96.01380833 -47.06375122 96.12921143 C-77.58009188 97.16497474 -108.07380736 98.46327029 -138.5625 100.125 C-139.36047375 100.16829563 -140.15844749 100.21159126 -140.98060226 100.25619888 C-148.88148165 100.68492838 -156.78200951 101.12001812 -164.68188477 101.56689453 C-165.88249542 101.63370422 -167.08310608 101.70051392 -168.32009888 101.76934814 C-170.90597549 101.93142784 -173.4805994 102.11717176 -176.06149292 102.33563232 C-177.0688457 102.41641179 -177.0688457 102.41641179 -178.09654903 102.49882317 C-179.9565039 102.65011284 -181.81551044 102.81293499 -183.67442322 102.97653198 C-189.01311004 103.01420617 -193.23900856 101.24887273 -198 99 C-198.74378906 98.68675781 -199.48757812 98.37351562 -200.25390625 98.05078125 C-202.5298021 97.08586655 -204.76143605 96.04853319 -207 95 C-208.05316406 94.53464844 -209.10632813 94.06929688 -210.19140625 93.58984375 C-211.28324219 93.08582031 -212.37507813 92.58179688 -213.5 92.0625 C-214.5209375 91.59972656 -215.541875 91.13695312 -216.59375 90.66015625 C-219 89 -219 89 -219.84375 86.30859375 C-219.8953125 85.54675781 -219.946875 84.78492188 -220 84 C-217.10961819 82.55480909 -214.7193389 83.17551105 -211.5 83.375 C-203.96665003 83.64312046 -198.04234926 81.53374081 -191.25585938 78.40185547 C-186.38652002 76.22120959 -183.37788924 75.73176065 -178 77 C-177.67 77 -177.34 77 -177 77 C-177.33 75.35 -177.66 73.7 -178 72 C-170.6408683 67.0907713 -162.77300635 63.36875583 -154.8125 59.5625 C-153.33956014 58.85426157 -151.86682561 58.14559597 -150.39428711 57.43652344 C-147.38690216 55.98896154 -144.37839905 54.54376048 -141.36914062 53.10009766 C-137.33948039 51.16536883 -133.31692211 49.21632804 -129.296875 47.26171875 C-116.56021711 41.07399762 -103.77330916 35.02012804 -90.90161133 29.1184082 C-83.23119795 25.5926886 -75.65965106 21.91795715 -68.140625 18.08203125 C-65.62250709 16.80918698 -63.09310678 15.56032682 -60.5625 14.3125 C-58.62471755 13.35473793 -56.68722048 12.39639824 -54.75 11.4375 C-53.79609375 10.96538086 -52.8421875 10.49326172 -51.859375 10.00683594 C-47.0108058 7.58424427 -42.3391059 5.0684387 -37.75 2.1875 C-23.9630356 -5.89793878 -13.63074604 -10.04649546 0 0 Z " fill="#2A2A2A" transform="translate(229,76)"/>
<path d="M0 0 C0.87504181 0.05165314 1.75008362 0.10330627 2.65164185 0.15652466 C3.5836441 0.18320221 4.51564636 0.20987976 5.47589111 0.23736572 C8.54974129 0.33396205 11.61893435 0.48120774 14.69070435 0.62918091 C16.82275855 0.70634108 18.95492565 0.78043809 21.08718872 0.85159302 C26.68714422 1.04772143 32.28430752 1.28804745 37.88198853 1.54019165 C42.44889365 1.74167515 47.01656282 1.92061001 51.58441162 2.09919739 C63.83067379 2.57806084 76.07374324 3.11373786 88.31570435 3.69168091 C87.30063232 9.92652248 85.43450281 14.75596656 80.31570435 18.69168091 C74.06226788 20.42975907 67.23382807 19.77375468 60.81570435 19.56668091 C58.15266848 19.51261891 55.49083111 19.47318407 52.82730103 19.45562744 C51.17629625 19.44149986 49.5252765 19.40508428 47.87539673 19.3425293 C43.82456029 19.27538866 41.13799966 19.52737454 37.65335083 21.68338013 C33.99234754 23.88624847 32.15204894 24.16603602 27.9446106 24.08230591 C26.79412231 24.06941528 25.64363403 24.05652466 24.45828247 24.04324341 C23.27685669 24.00972778 22.09543091 23.97621216 20.87820435 23.94168091 C19.66970825 23.92363403 18.46121216 23.90558716 17.21609497 23.88699341 C14.2484725 23.84007448 11.28250773 23.77443693 8.31570435 23.69168091 C7.65570435 25.67168091 6.99570435 27.65168091 6.31570435 29.69168091 C8.24434326 29.68382568 8.24434326 29.68382568 10.21194458 29.67581177 C15.01467178 29.65761435 19.81739598 29.64619532 24.62014771 29.63674927 C26.69274408 29.63174261 28.76533696 29.62493532 30.83792114 29.61624146 C33.82922227 29.60401445 36.8204764 29.59841578 39.8117981 29.59402466 C41.18579018 29.58628273 41.18579018 29.58628273 42.58753967 29.5783844 C48.24341706 29.57789908 53.70479639 29.9706705 59.31570435 30.69168091 C60.19070435 32.69168091 60.19070435 32.69168091 60.31570435 35.69168091 C58.12609725 39.42185846 55.36688032 42.64050493 52.31570435 45.69168091 C50.25393677 46.22244263 50.25393677 46.22244263 47.6711731 46.62136841 C46.69776978 46.77492798 45.72436646 46.92848755 44.72146606 47.08670044 C43.6594397 47.24509399 42.59741333 47.40348755 41.50320435 47.56668091 C40.40766235 47.73667603 39.31212036 47.90667114 38.18338013 48.08181763 C28.13362579 49.62043459 18.05944662 50.99363829 7.97659302 52.29666138 C-0.54016036 53.25479407 -0.54016036 53.25479407 -8.68429565 55.69168091 C-10.56530087 58.01598756 -10.56530087 58.01598756 -11.62179565 60.81668091 C-12.30929565 62.44168091 -12.99679565 64.06668091 -13.68429565 65.69168091 C-5.95257655 65.09262186 1.64913267 64.09722258 9.30007935 62.84402466 C11.55657674 62.48261523 13.81308755 62.12128956 16.0696106 61.76004028 C19.58080931 61.19339221 23.09170812 60.62495705 26.60232544 60.05471802 C30.02168425 59.50069713 33.44205501 58.95329624 36.86257935 58.40652466 C37.90750549 58.23467148 38.95243164 58.0628183 40.02902222 57.88575745 C45.1954308 57.06262353 50.08384182 56.49027897 55.31570435 56.69168091 C57.08251108 62.18484367 55.41282935 66.72466898 53.00193787 71.692276 C50.36141433 76.04735153 48.20630951 78.16174167 43.23953247 79.53005981 C41.17771568 79.962731 39.10843502 80.36074746 37.03445435 80.73074341 C34.68557145 81.20997915 32.33686558 81.69008309 29.98831177 82.17092896 C28.11917618 82.53642349 28.11917618 82.53642349 26.21228027 82.90930176 C20.15216023 84.12609097 14.13482572 85.52170403 8.10991859 86.90040016 C3.91452175 87.85493408 -0.2871001 88.78154481 -4.48796368 89.71165943 C-8.07376029 90.50612119 -11.65836466 91.3052892 -15.24069214 92.11526489 C-18.78910669 92.91744047 -22.33998166 93.70770065 -25.8929081 94.48964119 C-27.86384469 94.92648858 -29.83212485 95.37526712 -31.80030823 95.82435608 C-43.02802917 98.27275153 -43.02802917 98.27275153 -48.68429565 96.69168091 C-50.9069519 95.01980591 -50.9069519 95.01980591 -52.74679565 92.94168091 C-55.88826456 89.536892 -59.06927904 86.5836942 -62.68429565 83.69168091 C-62.12424409 77.93742567 -58.6530124 73.87406752 -55.349823 69.36331177 C-52.65049884 65.64470061 -50.29319819 62.04875805 -48.3053894 57.89871216 C-45.78514641 53.01273353 -43.4765192 48.63482766 -38.68429565 45.69168091 C-29.23958808 43.35447883 -19.30686237 44.07598897 -9.68429565 44.69168091 C-17.93429565 44.36168091 -26.18429565 44.03168091 -34.68429565 43.69168091 C-31.64668321 31.54123113 -20.63143008 19.90232056 -13.30245972 9.91653442 C-11.70230684 7.81951805 -11.70230684 7.81951805 -10.71160889 5.89503479 C-7.81761581 0.96741548 -5.67903393 -0.09927567 0 0 Z M-8.68429565 69.69168091 C-8.68429565 70.02168091 -8.68429565 70.35168091 -8.68429565 70.69168091 C-7.03429565 70.69168091 -5.38429565 70.69168091 -3.68429565 70.69168091 C-3.68429565 70.36168091 -3.68429565 70.03168091 -3.68429565 69.69168091 C-5.33429565 69.69168091 -6.98429565 69.69168091 -8.68429565 69.69168091 Z M-37.68429565 72.69168091 C-31.57375325 72.80437534 -25.73259052 72.58772459 -19.68429565 71.69168091 C-19.68429565 71.36168091 -19.68429565 71.03168091 -19.68429565 70.69168091 C-21.93403012 70.63754291 -24.18413948 70.598826 -26.43429565 70.56668091 C-28.31374878 70.53187622 -28.31374878 70.53187622 -30.23117065 70.49636841 C-33.41250058 70.67630788 -35.04951461 71.00169509 -37.68429565 72.69168091 Z " fill="#292929" transform="translate(476.6842956542969,79.30831909179688)"/>
<path d="M0 0 C2.61254883 -0.35644531 2.61254883 -0.35644531 5.95703125 -0.328125 C7.20073486 -0.32377441 8.44443848 -0.31942383 9.72583008 -0.31494141 C11.08806498 -0.29403691 12.45028838 -0.27237051 13.8125 -0.25 C15.21182551 -0.23669045 16.6111587 -0.22416778 18.01049805 -0.21240234 C22.34093871 -0.16848363 26.67027098 -0.08861002 31 0 C32.00764404 0.01963806 32.00764404 0.01963806 33.03564453 0.03967285 C48.11064426 0.33987167 63.0541551 0.93919408 78 3 C77.74224693 5.66850233 77.46918193 8.33400248 77.1875 11 C77.08211914 12.11568359 77.08211914 12.11568359 76.97460938 13.25390625 C76.22186288 20.17917401 74.48479149 25.9101417 70.57055664 31.70947266 C67.95380868 35.84197995 66.48941425 39.91128931 65.1328125 44.5859375 C64.635127 46.19172038 64.1363991 47.7971805 63.63671875 49.40234375 C62.87233817 51.90076782 62.11733857 54.40105891 61.38037109 56.90771484 C60.65663125 59.35075261 59.8976325 61.78049969 59.1328125 64.2109375 C58.81680588 65.33899307 58.81680588 65.33899307 58.49441528 66.48983765 C57.81689453 68.59521484 57.81689453 68.59521484 56 72 C51.27710306 74.02486268 47.10178333 74.20823605 42 74 C40.82170801 70.46512404 41.24334526 68.85514595 41.99609375 65.23828125 C42.33930664 63.56088867 42.33930664 63.56088867 42.68945312 61.84960938 C42.93630859 60.68236328 43.18316406 59.51511719 43.4375 58.3125 C43.68048828 57.13365234 43.92347656 55.95480469 44.17382812 54.74023438 C44.77569172 51.82532636 45.38468019 48.91209196 46 46 C35.54158045 46.66217182 25.09595829 47.43837568 14.65234375 48.30224609 C12.21121085 48.50319301 9.76968397 48.69883748 7.328125 48.89453125 C5.76559831 49.02311355 4.20309724 49.1520077 2.640625 49.28125 C1.91570862 49.338573 1.19079224 49.395896 0.44390869 49.45495605 C-2.5543769 49.70816019 -5.1318614 50.0439538 -8 51 C-8.33 51.99 -8.66 52.98 -9 54 C-8.34 53.01 -7.68 52.02 -7 51 C-5.35 51.33 -3.7 51.66 -2 52 C-3.98894637 58.38809856 -6.89288814 64.21722703 -9.95532227 70.14086914 C-10.60753193 71.41691744 -11.24638195 72.69988698 -11.87133789 73.98950195 C-15.58919277 81.64932036 -18.83641903 87.39689863 -27.32983398 90.35546875 C-35.6306463 92.35913927 -35.6306463 92.35913927 -39.80371094 89.96533203 C-41.60649537 88.5893641 -43.23618423 87.12947195 -44.875 85.5625 C-45.99634904 84.54181752 -47.1186994 83.52223373 -48.2421875 82.50390625 C-49.15226562 81.67761719 -50.06234375 80.85132813 -51 80 C-51.66 79.67 -52.32 79.34 -53 79 C-51.53861816 74.74870739 -49.39831084 71.57189193 -46.6875 68 C-45.92824219 66.989375 -45.16898437 65.97875 -44.38671875 64.9375 C-42 62 -42 62 -39.3671875 59.453125 C-36.93674999 56.93445378 -35.81751531 54.93815418 -34.4375 51.75 C-31.74297474 46.11535472 -28.51283869 41.05585668 -24.9375 35.9375 C-24.43081787 35.19918945 -23.92413574 34.46087891 -23.40209961 33.70019531 C-21.15576781 30.5393143 -19.58939647 28.34019407 -16.19140625 26.37890625 C-15.46824219 25.92386719 -14.74507813 25.46882813 -14 25 C-13.64730246 23.00332387 -13.31767774 21.00254637 -13 19 C-11.41383871 16.10990473 -9.49638578 13.47865765 -7.5625 10.8125 C-7.05912109 10.10158203 -6.55574219 9.39066406 -6.03710938 8.65820312 C-5.10332638 7.3399942 -4.16510994 6.02490586 -3.22094727 4.71411133 C-2.11681948 3.16400512 -1.05567003 1.58350504 0 0 Z M46.15625 18.46875 C40.5978519 20.93858099 34.54192966 20.57332649 28.5625 20.6875 C27.35400391 20.72166016 26.14550781 20.75582031 24.90039062 20.79101562 C21.93368651 20.87309835 18.96726324 20.94238015 16 21 C15.01 22.98 14.02 24.96 13 27 C17.26817196 27.28822426 21.53656112 27.57291877 25.80517578 27.85449219 C27.25413199 27.95055202 28.70302711 28.04753848 30.15185547 28.14550781 C32.24691222 28.28700717 34.34217371 28.42505657 36.4375 28.5625 C37.69433594 28.64628906 38.95117188 28.73007813 40.24609375 28.81640625 C44.17614866 29.00861497 48.06615193 29.03049495 52 29 C53.59138085 24.82262526 54.21278058 21.46839215 54 17 C50.74972637 16.70452058 49.09631244 16.95025621 46.15625 18.46875 Z M10 37 C14 38 14 38 14 38 Z M-29 56 C-29 56.33 -29 56.66 -29 57 C-24.05 57 -19.1 57 -14 57 C-14 56.67 -14 56.34 -14 56 C-18.95 56 -23.9 56 -29 56 Z " fill="#2A2A2A" transform="translate(313,82)"/>
<path d="M0 0 C2.00854038 0.06026113 4.01708099 0.12051562 6.02563477 0.18032837 C8.10117038 0.25051512 10.17465666 0.34279908 12.24902344 0.44140625 C16.21980647 0.6272121 20.18974668 0.72766073 24.1640625 0.8125 C37.32307655 1.12181309 50.33184745 1.82654657 63.375 3.625 C63.11810796 6.48103503 62.84496134 9.33397318 62.5625 12.1875 C62.45711914 13.38729492 62.45711914 13.38729492 62.34960938 14.61132812 C61.73325935 20.65155834 60.59127594 25.6851584 56.85546875 30.640625 C54.82220501 33.36594949 53.86181201 36.18517825 52.6875 39.375 C52.43476318 40.04805176 52.18202637 40.72110352 51.92163086 41.41455078 C50.27410939 45.88222096 48.82328123 50.38496217 47.453125 54.9453125 C47.11885498 56.02844727 46.78458496 57.11158203 46.44018555 58.22753906 C45.77879943 60.38610238 45.14162357 62.55225286 44.53051758 64.72558594 C43.66057737 67.53871893 42.82101997 70.05939638 41.375 72.625 C36.70926867 74.8695389 32.50856194 74.83453314 27.375 74.625 C27.12037838 68.62085795 28.07973688 63.17772246 29.3125 57.3125 C29.49490234 56.40693359 29.67730469 55.50136719 29.86523438 54.56835938 C31.22939712 47.91620575 31.22939712 47.91620575 32.375 45.625 C31.29718262 45.74093506 30.21936523 45.85687012 29.10888672 45.97631836 C25.04241926 46.41305572 20.97560658 46.84650613 16.90869141 47.27905273 C15.16120239 47.46535528 13.41380341 47.65250453 11.66650391 47.84057617 C2.12692881 48.86677831 -7.38751441 49.82845016 -16.96826172 50.38110352 C-19.72800569 50.53257061 -19.72800569 50.53257061 -22.625 51.625 C-22.955 52.615 -23.285 53.605 -23.625 54.625 C-22.965 53.635 -22.305 52.645 -21.625 51.625 C-19.975 51.955 -18.325 52.285 -16.625 52.625 C-18.23343255 58.37208942 -21.03190292 63.27070785 -23.9375 68.4375 C-24.41123047 69.28892578 -24.88496094 70.14035156 -25.37304688 71.01757812 C-26.32056356 72.71947882 -27.27356698 74.41833703 -28.23217773 76.11401367 C-29.15946711 77.78573518 -30.05776204 79.47387626 -30.92602539 81.17700195 C-34.779664 88.62987148 -34.779664 88.62987148 -39.4375 90.1875 C-40.22769531 90.47753906 -41.01789062 90.76757812 -41.83203125 91.06640625 C-50.51663672 92.80332734 -50.51663672 92.80332734 -54.45141602 90.60424805 C-56.23176177 89.21321932 -57.86721687 87.74870377 -59.5 86.1875 C-60.62134904 85.16681752 -61.7436994 84.14723373 -62.8671875 83.12890625 C-63.77726563 82.30261719 -64.68734375 81.47632813 -65.625 80.625 C-66.285 80.295 -66.945 79.965 -67.625 79.625 C-65.90599622 75.85428204 -63.60421752 72.51784289 -61.25 69.125 C-60.86328125 68.55652344 -60.4765625 67.98804688 -60.078125 67.40234375 C-57.8432824 64.17007139 -55.59952681 61.20714242 -52.625 58.625 C-51.965 58.625 -51.305 58.625 -50.625 58.625 C-50.4698291 57.29480835 -50.4698291 57.29480835 -50.31152344 55.93774414 C-49.59539258 52.4821326 -48.59612178 50.52709959 -46.640625 47.62109375 C-46.03476562 46.71552734 -45.42890625 45.80996094 -44.8046875 44.87695312 C-44.16789063 43.94818359 -43.53109375 43.01941406 -42.875 42.0625 C-42.25367188 41.12986328 -41.63234375 40.19722656 -40.9921875 39.23632812 C-33.41254037 28.01877018 -33.41254037 28.01877018 -28.625 25.625 C-28.48320313 24.88765625 -28.34140625 24.1503125 -28.1953125 23.390625 C-27.5276314 20.152829 -26.30205922 18.1386962 -24.5 15.375 C-23.94054687 14.50359375 -23.38109375 13.6321875 -22.8046875 12.734375 C-22.08539062 11.70828125 -21.36609375 10.6821875 -20.625 9.625 C-20.18784668 8.85172363 -19.75069336 8.07844727 -19.30029297 7.28173828 C-14.20862499 -0.7725279 -9.00522653 -0.51283924 0 0 Z M31.33984375 19.08203125 C25.89352205 21.63204314 19.83743752 21.19984435 13.9375 21.3125 C12.72900391 21.34666016 11.52050781 21.38082031 10.27539062 21.41601562 C7.30868651 21.49809835 4.34226324 21.56738015 1.375 21.625 C0.385 23.605 -0.605 25.585 -1.625 27.625 C6.89676282 28.66005763 15.42749889 28.93776602 24 29.1875 C25.39974932 29.23080627 26.79948904 29.27442387 28.19921875 29.31835938 C31.59106451 29.42362355 34.98297354 29.52576009 38.375 29.625 C39.035 25.665 39.695 21.705 40.375 17.625 C34.71537728 17.19223121 34.71537728 17.19223121 31.33984375 19.08203125 Z M-4.625 37.625 C-4.625 37.955 -4.625 38.285 -4.625 38.625 C-2.975 38.625 -1.325 38.625 0.375 38.625 C0.375 38.295 0.375 37.965 0.375 37.625 C-1.275 37.625 -2.925 37.625 -4.625 37.625 Z M-43.625 56.625 C-43.625 56.955 -43.625 57.285 -43.625 57.625 C-38.675 57.625 -33.725 57.625 -28.625 57.625 C-28.625 57.295 -28.625 56.965 -28.625 56.625 C-33.575 56.625 -38.525 56.625 -43.625 56.625 Z " fill="#292929" transform="translate(764.625,81.375)"/>
<path d="M0 0 C1.60096693 0.01939081 3.20107781 0.11392288 4.79736328 0.23779297 C5.8241922 0.31472382 6.85102112 0.39165466 7.90896606 0.47091675 C9.03471039 0.5604361 10.16045471 0.64995544 11.3203125 0.7421875 C12.48513153 0.83001495 13.64995056 0.91784241 14.85006714 1.0083313 C18.60878081 1.29219143 22.36691109 1.58299284 26.125 1.875 C31.00227049 2.25190928 35.8798088 2.62488497 40.7578125 2.9921875 C41.95875549 3.08264343 43.15969849 3.17309937 44.39703369 3.26629639 C53.06382377 3.90111047 61.72759339 4.36458654 70.41238403 4.6647644 C86.65011602 5.25006445 86.65011602 5.25006445 90.8125 7.5625 C98 15.57142857 98 15.57142857 98 20 C86.99805275 24.00257136 75.99197991 27.98981268 64.91796875 31.7890625 C64.25501297 32.01657196 63.59205719 32.24408142 62.90901184 32.47848511 C59.65236948 33.59466728 56.39409964 34.7058722 53.1340332 35.81201172 C51.95542725 36.21436035 50.77682129 36.61670898 49.5625 37.03125 C48.51191406 37.38767578 47.46132813 37.74410156 46.37890625 38.11132812 C44.07848096 38.78320241 44.07848096 38.78320241 43 40 C43.87624023 40.33733154 44.75248047 40.67466309 45.65527344 41.0222168 C48.96583646 42.29760836 52.27582132 43.57447966 55.58544922 44.85229492 C57.0067765 45.40072269 58.42831933 45.94859222 59.85009766 46.49584961 C68.62140865 49.87252579 77.34722337 53.32678729 86 57 C85.30744304 60.94674028 83.70584359 62.25978719 80.55078125 64.70703125 C78.36029455 66.53335643 76.76228236 68.76777568 75 71 C73.25 72.875 73.25 72.875 71 74 C65.41620707 74 60.35380099 72.30442107 55.0625 70.625 C54.04965942 70.31175781 54.04965942 70.31175781 53.01635742 69.9921875 C51.09765625 69.3515625 51.09765625 69.3515625 48 68 C47.67 67.01 47.34 66.02 47 65 C45.35 65.33 43.7 65.66 42 66 C42 65.34 42 64.68 42 64 C41.22785156 64.08507812 40.45570313 64.17015625 39.66015625 64.2578125 C34.44581305 63.89052685 30.21016294 61.91781668 25.4375 59.875 C24.46474121 59.46773682 23.49198242 59.06047363 22.48974609 58.64086914 C15.25038634 55.5900906 8.07979282 52.40631541 1 49 C-4.94394205 59.03825864 -10.33504439 69.3239457 -15.60620117 79.73022461 C-16.4160144 81.31202515 -16.4160144 81.31202515 -17.2421875 82.92578125 C-17.7254248 83.87880127 -18.20866211 84.83182129 -18.70654297 85.8137207 C-20 88 -20 88 -22 89 C-26.84612304 85.39358286 -30.80273405 81.74534003 -33 76 C-32.97048024 67.25807999 -28.04760185 59.10162783 -24.3125 51.4375 C-22.95737915 48.6142967 -21.60999746 45.7874134 -20.26171875 42.9609375 C-19.91443726 42.23578445 -19.56715576 41.51063141 -19.20935059 40.76350403 C-14.87457665 31.69156762 -10.75600289 22.52136272 -6.63076782 13.35275269 C-5.99926806 11.94969599 -5.36694915 10.54700761 -4.73368835 9.14474487 C-3.90468297 7.30903375 -3.07846632 5.47206396 -2.25244141 3.63500977 C-1 1 -1 1 0 0 Z M9 19 C9 21.97 9 24.94 9 28 C14.84405984 28.27492217 19.8587507 27.28916717 25.5 25.8125 C26.36915039 25.59053955 27.23830078 25.3685791 28.13378906 25.13989258 C35.88464794 23.11833102 43.45510521 20.68643981 51 18 C51 17.67 51 17.34 51 17 C45.82219834 16.95045895 40.64453554 16.91421364 35.46655273 16.89013672 C33.70611161 16.88009649 31.94568709 16.86646156 30.18530273 16.84912109 C27.65083715 16.82478564 25.11659261 16.81349704 22.58203125 16.8046875 C21.79850784 16.79436493 21.01498444 16.78404236 20.2077179 16.77340698 C16.02244596 16.77255306 12.76116269 17.10796168 9 19 Z " fill="#2A2A2A" transform="translate(884,74)"/>
<path d="M0 0 C4.9997848 3.95469914 5.17792135 10.2613884 6.046875 16.125 C7.22545539 22.38765267 9.47570833 28.74920002 12.64453125 34.30078125 C13.69640625 34.91953125 13.69640625 34.91953125 14.76953125 35.55078125 C16.64453125 37.30078125 16.64453125 37.30078125 16.90234375 39.265625 C16.89526628 41.27916603 16.77628458 43.29154293 16.64453125 45.30078125 C14.89453125 46.05078125 14.89453125 46.05078125 12.64453125 46.30078125 C9.68842799 44.15088797 8.69449791 42.44016192 7.45703125 38.98828125 C6.13006516 35.53962763 4.33882128 34.14748935 1.33203125 32.05078125 C-4.11186529 28.16355447 -6.5978738 23.28097736 -9.35546875 17.30078125 C-15.13180289 19.01442705 -20.4359797 21.58319444 -25.85546875 24.17578125 C-26.77972656 24.61019531 -27.70398438 25.04460937 -28.65625 25.4921875 C-37.17604522 29.02284684 -37.17604522 29.02284684 -43.35546875 35.30078125 C-42.13472656 35.69007812 -40.91398438 36.079375 -39.65625 36.48046875 C-33.51158586 38.52828907 -27.53976639 40.98485599 -21.54296875 43.42578125 C-19.32910775 44.32663766 -17.11430221 45.22517725 -14.8984375 46.12109375 C-13.9293042 46.51570801 -12.9601709 46.91032227 -11.96166992 47.31689453 C-8.34056131 48.68392663 -5.10534604 49.41253018 -1.24609375 49.6171875 C-0.11494141 49.6800293 -0.11494141 49.6800293 1.0390625 49.74414062 C1.81636719 49.78345703 2.59367188 49.82277344 3.39453125 49.86328125 C4.58369141 49.92805664 4.58369141 49.92805664 5.796875 49.99414062 C7.7459094 50.09981116 9.69519873 50.20076091 11.64453125 50.30078125 C12.5083284 56.23938664 12.80781142 62.12004833 12.89453125 68.11328125 C12.92643555 69.22497681 12.92643555 69.22497681 12.95898438 70.35913086 C12.98684716 74.7380663 12.71105347 77.143116 9.64453125 80.30078125 C7.42163086 81.07446289 7.42163086 81.07446289 4.796875 81.4609375 C3.81154785 81.61336914 2.8262207 81.76580078 1.81103516 81.92285156 C0.21267822 82.14086426 0.21267822 82.14086426 -1.41796875 82.36328125 C-2.51963379 82.52538086 -3.62129883 82.68748047 -4.75634766 82.85449219 C-8.28637999 83.36241769 -11.81932416 83.8374111 -15.35546875 84.30078125 C-16.5254541 84.45466309 -17.69543945 84.60854492 -18.90087891 84.76708984 C-22.34237517 85.21051985 -25.7853855 85.63619029 -29.23046875 86.05078125 C-30.80453491 86.24232788 -30.80453491 86.24232788 -32.41040039 86.43774414 C-49.65175635 88.39377137 -49.65175635 88.39377137 -55.29296875 86.11328125 C-59.5625016 82.36126753 -62.01089882 78.2797896 -64.328125 73.16796875 C-65.27880498 71.22168135 -65.27880498 71.22168135 -66.9609375 69.75390625 C-68.35546875 68.30078125 -68.35546875 68.30078125 -68.60546875 65.17578125 C-68.35546875 62.30078125 -68.35546875 62.30078125 -67.35546875 61.30078125 C-60.46816661 60.81895353 -50.61317153 60.17192986 -44.35546875 63.30078125 C-44.68546875 64.62078125 -45.01546875 65.94078125 -45.35546875 67.30078125 C-47.33546875 67.79578125 -47.33546875 67.79578125 -49.35546875 68.30078125 C-48.69546875 69.29078125 -48.03546875 70.28078125 -47.35546875 71.30078125 C-47.67673003 73.93512379 -48.16901923 75.92788222 -49.35546875 78.30078125 C-28.55198027 77.46114893 -28.55198027 77.46114893 -10.04296875 69.86328125 C-8.18379793 67.5063347 -8.18379793 67.5063347 -8.23046875 65.11328125 C-9.83996413 62.52020535 -11.47565998 62.24621298 -14.35546875 61.30078125 C-16.55762972 61.00124298 -18.76760437 60.75685731 -20.98046875 60.55078125 C-34.4595101 59.00064919 -48.8303596 54.57518474 -60.35546875 47.30078125 C-61.56568942 44.8803399 -61.33074667 43.54251784 -61.16796875 40.86328125 C-61.07516632 38.47877873 -61.07516632 38.47877873 -61.35546875 36.30078125 C-63.17818802 34.17722558 -63.17818802 34.17722558 -65.35546875 33.30078125 C-61.92741691 24.18667934 -48.14913469 18.97708456 -39.79882812 15.18505859 C-38.35181096 14.53636222 -36.90373851 13.8900144 -35.45458984 13.24609375 C-33.45439288 12.34533047 -31.47536897 11.41083334 -29.5 10.45703125 C-22.98424507 7.31463904 -16.39942926 4.39037085 -9.66796875 1.73828125 C-8.99628662 1.46226074 -8.32460449 1.18624023 -7.63256836 0.90185547 C-2.96252292 -0.87942223 -2.96252292 -0.87942223 0 0 Z " fill="#2A2A2A" transform="translate(657.35546875,90.69921875)"/>
<path d="M0 0 C0.66 0.66 1.32 1.32 2 2 C1.67 2.66 1.34 3.32 1 4 C15.52 4 30.04 4 45 4 C45 4.33 45 4.66 45 5 C38.4 5 31.8 5 25 5 C25 5.66 25 6.32 25 7 C16.42 7 7.84 7 -1 7 C-1.33 5.68 -1.66 4.36 -2 3 C-1.34 2.01 -0.68 1.02 0 0 Z " fill="#3A3A3A" transform="translate(482,105)"/>
<path d="M0 0 C0.66 0.33 1.32 0.66 2 1 C3.5459845 0.91091911 5.08848255 0.75515931 6.625 0.5625 C11.1264389 0.05216245 15.4728703 -0.08383574 20 0 C19.67 0.66 19.34 1.32 19 2 C16.24365234 2.59423828 16.24365234 2.59423828 12.5859375 3.0703125 C11.93807281 3.15626678 11.29020813 3.24222107 10.62271118 3.33078003 C9.24626988 3.51148018 7.86923575 3.68771129 6.49169922 3.85986328 C4.40313278 4.1214761 2.31685429 4.39736573 0.23046875 4.67578125 C-5.88112809 5.46970065 -11.82299691 6.10187851 -18 6 C-17.67 5.34 -17.34 4.68 -17 4 C-14.12817413 3.52381188 -11.32879853 3.15832403 -8.4375 2.875 C-7.63119141 2.78863281 -6.82488281 2.70226562 -5.99414062 2.61328125 C-3.99695936 2.40056372 -1.99857263 2.19922145 0 2 C0 1.34 0 0.68 0 0 Z " fill="#212121" transform="translate(644,170)"/>
<path d="M0 0 C1.14597656 0.18820313 2.29195313 0.37640625 3.47265625 0.5703125 C3.14265625 1.5603125 2.81265625 2.5503125 2.47265625 3.5703125 C0.88324219 3.51810547 0.88324219 3.51810547 -0.73828125 3.46484375 C-2.12628627 3.43670851 -3.51430838 3.40940807 -4.90234375 3.3828125 C-5.60101563 3.35767578 -6.2996875 3.33253906 -7.01953125 3.30664062 C-9.29482052 3.24052689 -9.29482052 3.24052689 -12.52734375 3.5703125 C-13.51734375 5.0553125 -13.51734375 5.0553125 -14.52734375 6.5703125 C-15.18734375 6.5703125 -15.84734375 6.5703125 -16.52734375 6.5703125 C-16.79546875 7.3540625 -17.06359375 8.1378125 -17.33984375 8.9453125 C-18.52734375 11.5703125 -18.52734375 11.5703125 -21.52734375 13.5703125 C-18.80212928 0.34682865 -12.070161 -1.60041197 0 0 Z " fill="#222222" transform="translate(483.52734375,80.4296875)"/>
<path d="M0 0 C1.37562854 1.28965176 2.70766393 2.62689293 4 4 C4 4.66 4 5.32 4 6 C5.65 6.33 7.3 6.66 9 7 C9 7.66 9 8.32 9 9 C9.66 9 10.32 9 11 9 C14 12.46153846 14 12.46153846 14 15 C14.66 15 15.32 15 16 15 C16.33 17.31 16.66 19.62 17 22 C13.93244479 20.20177798 13.05783659 19.15828961 11.8125 15.75 C10.14459927 11.31788177 6.8595374 9.29088041 3.05859375 6.67578125 C0.90027555 4.91882013 0.02962017 3.55457113 -1 1 C-0.67 0.67 -0.34 0.34 0 0 Z " fill="#1E1E1E" transform="translate(653,114)"/>
<path d="M0 0 C0 0.66 0 1.32 0 2 C-8.58 2.33 -17.16 2.66 -26 3 C-26 2.01 -26 1.02 -26 0 C-22.22958744 -0.19670554 -18.45866237 -0.38078426 -14.6875 -0.5625 C-13.61564453 -0.61857422 -12.54378906 -0.67464844 -11.43945312 -0.73242188 C-9.89741211 -0.80493164 -9.89741211 -0.80493164 -8.32421875 -0.87890625 C-7.37635498 -0.9260376 -6.42849121 -0.97316895 -5.4519043 -1.02172852 C-3 -1 -3 -1 0 0 Z " fill="#1A1A1A" transform="translate(510,101)"/>
<path d="M0 0 C0.99 0.33 1.98 0.66 3 1 C2.835 1.86625 2.67 2.7325 2.5 3.625 C1.91614001 6.91589647 1.91614001 6.91589647 2.0625 9.9375 C1.98700869 13.63657412 1.12497727 16.48444603 0 20 C-0.66 20 -1.32 20 -2 20 C-2.33 20.66 -2.66 21.32 -3 22 C-3.16335585 16.76580643 -2.60552037 12.13693808 -1.5 7.0625 C-1.35691406 6.37865234 -1.21382812 5.69480469 -1.06640625 4.99023438 C-0.71716229 3.32550486 -0.35947054 1.66255125 0 0 Z " fill="#222222" transform="translate(796,129)"/>
<path d="M0 0 C5.33101248 0.98722453 9.35486103 2.14145294 14 5 C16.64914781 5.81167499 19.29022536 6.40293101 22 7 C22 7.66 22 8.32 22 9 C14.56948488 8.56291088 7.64035523 6.3738075 1 3 C0.67 2.01 0.34 1.02 0 0 Z " fill="#1F1F1F" transform="translate(901,128)"/>
<path d="M0 0 C0.33 1.32 0.66 2.64 1 4 C0.34 4 -0.32 4 -1 4 C-1.18175781 4.56847656 -1.36351562 5.13695312 -1.55078125 5.72265625 C-3.14084634 10.60701003 -4.90459778 15.31029027 -7 20 C-7.66 20 -8.32 20 -9 20 C-7.86614183 13.68918413 -6.30255824 7.55911049 -3 2 C-2.01 1.34 -1.02 0.68 0 0 Z " fill="#242424" transform="translate(860,129)"/>
<path d="M0 0 C0.66 0.33 1.32 0.66 2 1 C1.67 2.65 1.34 4.3 1 6 C7.93 6.495 7.93 6.495 15 7 C14.01 8.485 14.01 8.485 13 10 C7.76119922 9.44854729 3.02649303 8.57077907 -2 7 C-2.125 4.625 -2.125 4.625 -2 2 C-1.34 1.34 -0.68 0.68 0 0 Z " fill="#1E1E1E" transform="translate(942,138)"/>
<path d="M0 0 C0.66 0 1.32 0 2 0 C0.47228098 4.30538996 -1.74577962 7.97064517 -4.171875 11.81640625 C-5.28127545 14.01515992 -5.28127545 14.01515992 -4.140625 16.27734375 C-3.76421875 16.84582031 -3.3878125 17.41429687 -3 18 C-6.71029083 16.56375839 -6.71029083 16.56375839 -7.8671875 14.3125 C-8.07634322 10.67072979 -6.21905384 8.69593097 -4.1875 5.75 C-3.45917969 4.67234375 -2.73085938 3.5946875 -1.98046875 2.484375 C-1.32691406 1.66453125 -0.67335938 0.8446875 0 0 Z " fill="#212121" transform="translate(422,148)"/>
<path d="M0 0 C0.33 0.66 0.66 1.32 1 2 C1.69867188 1.97679688 2.39734375 1.95359375 3.1171875 1.9296875 C4.02726562 1.91164063 4.93734375 1.89359375 5.875 1.875 C6.77992188 1.85179688 7.68484375 1.82859375 8.6171875 1.8046875 C11 2 11 2 13 4 C12 5 12 5 9.05859375 5.09765625 C7.26615234 5.08025391 7.26615234 5.08025391 5.4375 5.0625 C3.64119141 5.04896484 3.64119141 5.04896484 1.80859375 5.03515625 C0.88175781 5.02355469 -0.04507812 5.01195313 -1 5 C-0.67 3.35 -0.34 1.7 0 0 Z " fill="#343434" transform="translate(325,107)"/>
<path d="M0 0 C6.6 0 13.2 0 20 0 C20 0.66 20 1.32 20 2 C10.595 2.495 10.595 2.495 1 3 C0.67 2.01 0.34 1.02 0 0 Z " fill="#1E1E1E" transform="translate(762,110)"/>
<path d="M0 0 C0.66 0.33 1.32 0.66 2 1 C0.28779103 3.97383663 -1.5440359 6.79159071 -3.5625 9.5625 C-5.29832216 11.95709804 -6.8035061 14.28069568 -8 17 C-8.66 17 -9.32 17 -10 17 C-8.68018255 12.31812124 -6.80204328 8.99625079 -3.875 5.125 C-3.15054688 4.15820312 -2.42609375 3.19140625 -1.6796875 2.1953125 C-1.12539063 1.47085938 -0.57109375 0.74640625 0 0 Z " fill="#1E1E1E" transform="translate(726,118)"/>
<path d="M0 0 C7.10526316 4.57894737 7.10526316 4.57894737 9 7 C9 7.99 9 8.98 9 10 C6.69 10.66 4.38 11.32 2 12 C3 9 3 9 5 7 C4.01 6.319375 4.01 6.319375 3 5.625 C2.34 5.08875 1.68 4.5525 1 4 C1 3.34 1 2.68 1 2 C0.34 1.67 -0.32 1.34 -1 1 C-0.67 0.67 -0.34 0.34 0 0 Z " fill="#4A4A4A" transform="translate(228,76)"/>
<path d="M0 0 C0.66 0 1.32 0 2 0 C2 0.66 2 1.32 2 2 C2.71027344 2.04898438 3.42054688 2.09796875 4.15234375 2.1484375 C5.53099609 2.26058594 5.53099609 2.26058594 6.9375 2.375 C8.31228516 2.47941406 8.31228516 2.47941406 9.71484375 2.5859375 C10.84599609 2.79089844 10.84599609 2.79089844 12 3 C12.33 3.66 12.66 4.32 13 5 C9.97170479 5.6663569 7.10601995 6.14543237 4 6 C0.9375 3.5625 0.9375 3.5625 -1 1 C-0.67 0.67 -0.34 0.34 0 0 Z " fill="#393939" transform="translate(426,171)"/>
<path d="M0 0 C1.3303125 0.5259375 1.3303125 0.5259375 2.6875 1.0625 C6.1662569 2.04705384 7.58822985 1.87481286 11 1 C12.6662553 0.9629721 14.33401319 0.95240038 16 1 C16 1.66 16 2.32 16 3 C9.98655091 4.45780584 4.65590719 4.74225803 -1 2 C-0.67 1.34 -0.34 0.68 0 0 Z " fill="#1F1F1F" transform="translate(38,175)"/>
<path d="M0 0 C5 1.66666667 10 3.33333333 15 5 C14.67 6.32 14.34 7.64 14 9 C13.67 8.01 13.34 7.02 13 6 C12.01 6.12375 12.01 6.12375 11 6.25 C6.78756306 5.89896359 3.65289323 4.03039227 0 2 C0 1.34 0 0.68 0 0 Z " fill="#212121" transform="translate(953,125)"/>
<path d="M0 0 C0.66 0 1.32 0 2 0 C2 0.66 2 1.32 2 2 C2.99 1.67 3.98 1.34 5 1 C7.6875 1.9375 7.6875 1.9375 10 3 C9.67 3.99 9.34 4.98 9 6 C8.67 5.34 8.34 4.68 8 4 C3.545 4.495 3.545 4.495 -1 5 C-0.67 3.35 -0.34 1.7 0 0 Z " fill="#232323" transform="translate(737,102)"/>
<path d="M0 0 C-1.90641815 1.98930589 -3.41569191 2.92722517 -6.1640625 3.26953125 C-12.42738898 3.38174068 -12.42738898 3.38174068 -16 1 C-13.8973294 0.63705686 -11.79278943 0.28493028 -9.6875 -0.0625 C-8.51574219 -0.25972656 -7.34398437 -0.45695313 -6.13671875 -0.66015625 C-3 -1 -3 -1 0 0 Z " fill="#363636" transform="translate(635,167)"/>
<path d="M0 0 C1.65 0.33 3.3 0.66 5 1 C3.94124926 4.40312738 2.99097846 7.01353231 1 10 C0.34 10 -0.32 10 -1 10 C-1 7.69 -1 5.38 -1 3 C-0.01 2.67 0.98 2.34 2 2 C1.34 1.34 0.68 0.68 0 0 Z " fill="#414141" transform="translate(306,133)"/>
<path d="M0 0 C0.99 0.33 1.98 0.66 3 1 C-1.46153846 7.92307692 -1.46153846 7.92307692 -4 10 C-4.66 10 -5.32 10 -6 10 C-4.6302836 6.00499382 -2.74277578 3.19990508 0 0 Z " fill="#222222" transform="translate(706,147)"/>
<path d="M0 0 C3.74817794 0.28288135 6.07469317 1.39982467 9.3125 3.25 C9.3125 3.91 9.3125 4.57 9.3125 5.25 C8.054375 5.12625 6.79625 5.0025 5.5 4.875 C4.43845703 4.77058594 4.43845703 4.77058594 3.35546875 4.6640625 C1.3125 4.25 1.3125 4.25 -1.6875 2.25 C-2.3475 1.92 -3.0075 1.59 -3.6875 1.25 C-2.6875 0.25 -2.6875 0.25 0 0 Z " fill="#212121" transform="translate(941.6875,120.75)"/>
<path d="M0 0 C4.62 0 9.24 0 14 0 C14 0.66 14 1.32 14 2 C13.34 2 12.68 2 12 2 C11.67 2.66 11.34 3.32 11 4 C11 3.34 11 2.68 11 2 C9.948125 2.2784375 9.948125 2.2784375 8.875 2.5625 C5.66111302 3.05156976 3.16439664 2.66231558 0 2 C0 1.34 0 0.68 0 0 Z " fill="#212121" transform="translate(347,83)"/>
<path d="M0 0 C0 0.66 0 1.32 0 2 C-0.71027344 2.19335938 -1.42054688 2.38671875 -2.15234375 2.5859375 C-3.53099609 2.97652344 -3.53099609 2.97652344 -4.9375 3.375 C-5.85402344 3.63023437 -6.77054687 3.88546875 -7.71484375 4.1484375 C-10.16745087 4.76660104 -10.16745087 4.76660104 -11 7 C-11.99 6.67 -12.98 6.34 -14 6 C-12.18611862 2.79903286 -11.09781441 2.03556888 -7.5625 0.75 C-4 0 -4 0 0 0 Z " fill="#1F1F1F" transform="translate(478,130)"/>
<path d="M0 0 C2.31 0.33 4.62 0.66 7 1 C6.67 3.64 6.34 6.28 6 9 C5.34 9 4.68 9 4 9 C4 7.35 4 5.7 4 4 C1.525 3.01 1.525 3.01 -1 2 C-0.67 1.34 -0.34 0.68 0 0 Z " fill="#202020" transform="translate(384,84)"/>
<path d="M0 0 C-1.31061591 4.23429756 -2.94356259 8.07407404 -5 12 C-5.66 12 -6.32 12 -7 12 C-7 11.01 -7 10.02 -7 9 C-6.34 9 -5.68 9 -5 9 C-5.0928125 7.6078125 -5.0928125 7.6078125 -5.1875 6.1875 C-5 3 -5 3 -3.625 1.125 C-2 0 -2 0 0 0 Z " fill="#202020" transform="translate(871,146)"/>
<path d="M0 0 C0.66 0 1.32 0 2 0 C3.16343227 2.32686453 3.19895988 3.84721413 3.25 6.4375 C3.27578125 7.21996094 3.3015625 8.00242188 3.328125 8.80859375 C3 11 3 11 0 14 C0 9.38 0 4.76 0 0 Z " fill="#1C1C1C" transform="translate(667,153)"/>
<path d="M0 0 C0.66 0.33 1.32 0.66 2 1 C0.78065514 5.03321763 -0.55954927 8.54269479 -3 12 C-3.66 12 -4.32 12 -5 12 C-3.68938409 7.76570244 -2.05643741 3.92592596 0 0 Z " fill="#202020" transform="translate(304,142)"/>
<path d="M0 0 C0.99 0.33 1.98 0.66 3 1 C2.38245741 2.31602523 1.75571258 3.62773556 1.125 4.9375 C0.77695312 5.66839844 0.42890625 6.39929688 0.0703125 7.15234375 C-1 9 -1 9 -3 10 C-2.25 3.375 -2.25 3.375 0 0 Z " fill="#212121" transform="translate(868,109)"/>
<path d="M0 0 C1.21236328 0.04060547 1.21236328 0.04060547 2.44921875 0.08203125 C3.06410156 0.11683594 3.67898437 0.15164062 4.3125 0.1875 C4.6425 0.8475 4.9725 1.5075 5.3125 2.1875 C2.29759443 3.19246852 0.27068308 3.29085303 -2.875 3.25 C-4.22658203 3.23646484 -4.22658203 3.23646484 -5.60546875 3.22265625 C-6.29253906 3.21105469 -6.97960937 3.19945312 -7.6875 3.1875 C-5.26849268 0.20484049 -3.789448 -0.16475861 0 0 Z " fill="#1F1F1F" transform="translate(102.6875,171.8125)"/>
<path d="M0 0 C4.77576339 0.4682121 8.04476345 1.24331998 12 4 C11.67 4.66 11.34 5.32 11 6 C7.37 4.35 3.74 2.7 0 1 C0 0.67 0 0.34 0 0 Z " fill="#313131" transform="translate(11,165)"/>
<path d="M0 0 C2.22189824 2.22189824 2.92598892 4.08482708 4 7 C2.02 7.99 2.02 7.99 0 9 C-0.185625 7.8553125 -0.185625 7.8553125 -0.375 6.6875 C-0.88102792 3.79732864 -0.88102792 3.79732864 -3 1 C-2.01 0.67 -1.02 0.34 0 0 Z " fill="#202020" transform="translate(596,122)"/>
<path d="M0 0 C1.33333333 0.66666667 2.66666667 1.33333333 4 2 C5.32 2 6.64 2 8 2 C8 2.66 8 3.32 8 4 C4.7 4.33 1.4 4.66 -2 5 C-2 3.68 -2 2.36 -2 1 C-1.34 0.67 -0.68 0.34 0 0 Z " fill="#202020" transform="translate(301,102)"/>
<path d="M0 0 C1.32 0.99 2.64 1.98 4 3 C0.04 3.66 -3.92 4.32 -8 5 C-5.16599124 2.16599124 -3.80645219 0.92840297 0 0 Z " fill="#333333" transform="translate(477,164)"/>
<path d="M0 0 C1.65 0.33 3.3 0.66 5 1 C4.34 2.98 3.68 4.96 3 7 C2.01 7 1.02 7 0 7 C0.33 5.68 0.66 4.36 1 3 C1.66 3 2.32 3 3 3 C3 2.34 3 1.68 3 1 C1.02 1.99 1.02 1.99 -1 3 C-0.67 2.01 -0.34 1.02 0 0 Z " fill="#313131" transform="translate(743,133)"/>
<path d="M0 0 C0.99 1.485 0.99 1.485 2 3 C4.1242748 5.31739069 6.45665704 7.15826889 9 9 C5.26512223 8.5020163 3.18762365 8.12508244 0 6 C-0.1875 2.875 -0.1875 2.875 0 0 Z " fill="#1C1C1C" transform="translate(597,132)"/>
<path d="M0 0 C0.66 0 1.32 0 2 0 C0.8905928 3.48670834 -0.26337666 6.77484237 -2 10 C-2.66 10 -3.32 10 -4 10 C-3.43697042 6.05879291 -2.3208055 3.2491277 0 0 Z " fill="#1E1E1E" transform="translate(879,127)"/>
<path d="M0 0 C0.33 0.66 0.66 1.32 1 2 C0.01 2 -0.98 2 -2 2 C-2 2.66 -2 3.32 -2 4 C-6.38461538 7 -6.38461538 7 -9 7 C-7.8483054 3.54491619 -7.01153326 2.89296376 -4 1 C-1.75 0.3125 -1.75 0.3125 0 0 Z " fill="#1F1F1F" transform="translate(603,115)"/>
<path d="M0 0 C-3.83325617 2.70582788 -6.32538149 3.32613618 -11 3 C-9 0 -9 0 -6.625 -0.75 C-4.07496 -0.99286095 -2.40864929 -0.8028831 0 0 Z " fill="#1E1E1E" transform="translate(921,98)"/>
<path d="M0 0 C0.33 0.66 0.66 1.32 1 2 C0.00390625 4.1640625 0.00390625 4.1640625 -1.4375 6.625 C-1.91058594 7.44226563 -2.38367188 8.25953125 -2.87109375 9.1015625 C-3.24363281 9.72804687 -3.61617188 10.35453125 -4 11 C-4.66 10.67 -5.32 10.34 -6 10 C-5.38003922 8.70590711 -4.75383647 7.41480327 -4.125 6.125 C-3.77695312 5.40570313 -3.42890625 4.68640625 -3.0703125 3.9453125 C-2 2 -2 2 0 0 Z " fill="#1C1C1C" transform="translate(298,156)"/>
<path d="M0 0 C0.66 0 1.32 0 2 0 C2.66666667 2.66666667 3.33333333 5.33333333 4 8 C2.02 6.68 0.04 5.36 -2 4 C-1.34 2.68 -0.68 1.36 0 0 Z " fill="#3C3C3C" transform="translate(699,157)"/>
<path d="M0 0 C1.32 0 2.64 0 4 0 C4 0.99 4 1.98 4 3 C-0.455 3.495 -0.455 3.495 -5 4 C-5 3.34 -5 2.68 -5 2 C-4.360625 1.855625 -3.72125 1.71125 -3.0625 1.5625 C-1.02454854 1.18992819 -1.02454854 1.18992819 0 0 Z " fill="#222222" transform="translate(521,154)"/>
<path d="M0 0 C0.66 0 1.32 0 2 0 C1.34 2.97 0.68 5.94 0 9 C-0.99 8.01 -1.98 7.02 -3 6 C-2.01 4.02 -1.02 2.04 0 0 Z " fill="#212121" transform="translate(374,129)"/>
<path d="M0 0 C0.66 0 1.32 0 2 0 C2.33 1.32 2.66 2.64 3 4 C2.34 4 1.68 4 1 4 C0.71125 4.639375 0.4225 5.27875 0.125 5.9375 C-1 8 -1 8 -3 9 C-2.01 6.03 -1.02 3.06 0 0 Z " fill="#333333" transform="translate(876,90)"/>
<path d="M0 0 C0.86625 0.3403125 0.86625 0.3403125 1.75 0.6875 C-1.10306797 3.01222205 -3.79074837 4.4383258 -7.25 5.6875 C-5.99519591 1.92308774 -4.25905546 -0.59153548 0 0 Z " fill="#343434" transform="translate(200.25,93.3125)"/>
<path d="M0 0 C-1.97420135 2.52259061 -2.96745642 2.9929808 -6.1875 3.6875 C-7.5796875 3.8421875 -7.5796875 3.8421875 -9 4 C-8.67 3.01 -8.34 2.02 -8 1 C-5.29120665 -0.35439668 -2.99066732 -0.06501451 0 0 Z " fill="#1F1F1F" transform="translate(621,169)"/>
<path d="M0 0 C1.22589844 0.01353516 1.22589844 0.01353516 2.4765625 0.02734375 C3.41628906 0.04474609 3.41628906 0.04474609 4.375 0.0625 C1.47407498 1.99645001 0.47825263 2.36381941 -2.8125 2.6875 C-4.070625 2.81125 -5.32875 2.935 -6.625 3.0625 C-6.625 2.4025 -6.625 1.7425 -6.625 1.0625 C-4.21954362 -0.14022819 -2.67503047 -0.03821472 0 0 Z " fill="#202020" transform="translate(491.625,141.9375)"/>
<path d="M0 0 C1.39195915 4.17587745 -0.17676781 6.13474776 -2 10 C-2.66 10 -3.32 10 -4 10 C-2.99806563 6.20696275 -2.18975773 3.28463659 0 0 Z " fill="#1C1C1C" transform="translate(855,139)"/>
<path d="M0 0 C0.99 0.33 1.98 0.66 3 1 C3 3.64 3 6.28 3 9 C0.53721199 6.53721199 0.00228745 4.29323018 -1 1 C-0.67 0.67 -0.34 0.34 0 0 Z " fill="#1B1B1B" transform="translate(671,127)"/>
<path d="M0 0 C0.86625 0.3403125 0.86625 0.3403125 1.75 0.6875 C0.5434375 1.3371875 0.5434375 1.3371875 -0.6875 2 C-3.52846354 3.49224002 -3.52846354 3.49224002 -4.25 6.6875 C-5.24 7.0175 -6.23 7.3475 -7.25 7.6875 C-6.91753345 4.61218444 -6.61895244 3.06917494 -4.4375 0.8125 C-2.25 -0.3125 -2.25 -0.3125 0 0 Z " fill="#1E1E1E" transform="translate(441.25,126.3125)"/>
<path d="M0 0 C-1.58272601 1.58272601 -3.38034003 1.34735747 -5.5625 1.5625 C-6.80193359 1.68818359 -6.80193359 1.68818359 -8.06640625 1.81640625 C-9.02353516 1.90728516 -9.02353516 1.90728516 -10 2 C-9.67 1.01 -9.34 0.02 -9 -1 C-3.375 -2.25 -3.375 -2.25 0 0 Z " fill="#212121" transform="translate(360,126)"/>
<path d="M0 0 C1.98 0.66 3.96 1.32 6 2 C5.34 2.66 4.68 3.32 4 4 C2.68 4 1.36 4 0 4 C-0.99 4.33 -1.98 4.66 -3 5 C-1.125 1.125 -1.125 1.125 0 0 Z " fill="#232323" transform="translate(884,120)"/>
<path d="M0 0 C0.66 0 1.32 0 2 0 C2.69710731 1.28650706 3.38242876 2.57940665 4.0625 3.875 C4.63677734 4.95394531 4.63677734 4.95394531 5.22265625 6.0546875 C5.47917969 6.69664063 5.73570312 7.33859375 6 8 C5.67 8.66 5.34 9.32 5 10 C2.08772731 6.71195019 0.50298788 4.40114397 0 0 Z " fill="#1C1C1C" transform="translate(664,117)"/>
<path d="M0 0 C0 0.66 0 1.32 0 2 C-2.97 2 -5.94 2 -9 2 C-8 0 -8 0 -6.1875 -0.6875 C-3.81180233 -1.02688538 -2.26664171 -0.72856341 0 0 Z " fill="#1C1C1C" transform="translate(625,175)"/>
<path d="M0 0 C1.125 3.75 1.125 3.75 0 6 C-3.0625 6.625 -3.0625 6.625 -6 7 C-5.34 6.01 -4.68 5.02 -4 4 C-3.34 4 -2.68 4 -2 4 C-1.34 2.68 -0.68 1.36 0 0 Z " fill="#242424" transform="translate(293,163)"/>
<path d="M0 0 C0.33 0.66 0.66 1.32 1 2 C-1.17508418 6.69360269 -1.17508418 6.69360269 -4.1875 7.8125 C-4.785625 7.874375 -5.38375 7.93625 -6 8 C-5.34 6.68 -4.68 5.36 -4 4 C-3.34 4 -2.68 4 -2 4 C-1.34 2.68 -0.68 1.36 0 0 Z " fill="#1F1F1F" transform="translate(732,162)"/>
<path d="M0 0 C2.375 0.25 2.375 0.25 5 1 C6.3125 3.0625 6.3125 3.0625 7 5 C4.36 4.01 1.72 3.02 -1 2 C-0.67 1.34 -0.34 0.68 0 0 Z " fill="#363636" transform="translate(642,149)"/>
<path d="M0 0 C0.66 0 1.32 0 2 0 C2 2.64 2 5.28 2 8 C1.01 8.495 1.01 8.495 0 9 C-0.87890625 2.84765625 -0.87890625 2.84765625 -1 1 C-0.67 0.67 -0.34 0.34 0 0 Z " fill="#1E1E1E" transform="translate(667,142)"/>
<path d="M0 0 C-2 2 -2 2 -5.625 2.125 C-6.73875 2.08375 -7.8525 2.0425 -9 2 C-9 1.34 -9 0.68 -9 0 C-5.62182575 -0.84454356 -3.32534757 -1.10844919 0 0 Z " fill="#232323" transform="translate(198,145)"/>
<path d="M0 0 C0.99 0.33 1.98 0.66 3 1 C0.525 4.465 0.525 4.465 -2 8 C-2.33 6.68 -2.66 5.36 -3 4 C-1.5625 1.75 -1.5625 1.75 0 0 Z " fill="#1F1F1F" transform="translate(271,144)"/>
<path d="M0 0 C0.66 0.33 1.32 0.66 2 1 C1.25 3.375 1.25 3.375 0 6 C-1.98 6.99 -1.98 6.99 -4 8 C-2.68 5.36 -1.36 2.72 0 0 Z " fill="#3C3C3C" transform="translate(282,127)"/>
<path d="M0 0 C0.33 0.99 0.66 1.98 1 3 C0.01 4.485 0.01 4.485 -1 6 C-2.32 5.67 -3.64 5.34 -5 5 C-3.35 3.35 -1.7 1.7 0 0 Z " fill="#232323" transform="translate(382,111)"/>
<path d="M0 0 C0.66 0 1.32 0 2 0 C0.73058503 3.91402949 -0.51167694 5.79072873 -4 8 C-3.40312566 4.65750371 -2.26396123 2.53563658 0 0 Z " fill="#232323" transform="translate(306,93)"/>
<path d="M0 0 C0.99 0.33 1.98 0.66 3 1 C3 1.66 3 2.32 3 3 C-0.465 4.485 -0.465 4.485 -4 6 C-2.84826645 3.53199953 -1.95216435 1.95216435 0 0 Z " fill="#232323" transform="translate(146,121)"/>
<path d="M0 0 C0 0.99 0 1.98 0 3 C-2.375 4.0625 -2.375 4.0625 -5 5 C-5.66 4.67 -6.32 4.34 -7 4 C-5.53303752 1.06607504 -3.25996861 0 0 0 Z " fill="#383838" transform="translate(627,102)"/>
<path d="M0 0 C-1.125 1.5 -1.125 1.5 -3 3 C-6.1875 3.1875 -6.1875 3.1875 -9 3 C-9 2.34 -9 1.68 -9 1 C-5.92677456 0.08941469 -3.19902639 -0.08886184 0 0 Z " fill="#1E1E1E" transform="translate(909,100)"/>
<path d="M0 0 C0.6875 1.75 0.6875 1.75 1 4 C-0.3125 6.25 -0.3125 6.25 -2 8 C-2.66 8 -3.32 8 -4 8 C-2.87548273 5.0280615 -1.77706209 2.66559313 0 0 Z " fill="#3B3B3B" transform="translate(742,94)"/>
<path d="M0 0 C2.72426311 2.35277269 3.8141763 4.62496331 5 8 C3.0625 7.375 3.0625 7.375 1 6 C0.25 2.875 0.25 2.875 0 0 Z " fill="#1C1C1C" transform="translate(596,166)"/>
<path d="M0 0 C2.69082872 0.17635452 5.32851446 0.61835921 8 1 C7.67 1.66 7.34 2.32 7 3 C4.125 3.125 4.125 3.125 1 3 C0.34 2.34 -0.32 1.68 -1 1 C-0.67 0.67 -0.34 0.34 0 0 Z " fill="#222222" transform="translate(634,148)"/>
<path d="M0 0 C2.64 0 5.28 0 8 0 C7.67 0.99 7.34 1.98 7 3 C4.0625 2.625 4.0625 2.625 1 2 C0.67 1.34 0.34 0.68 0 0 Z " fill="#222222" transform="translate(113,148)"/>
<path d="M0 0 C0.66 0 1.32 0 2 0 C1.1875 2.9375 1.1875 2.9375 0 6 C-0.99 6.33 -1.98 6.66 -3 7 C-1.125 1.125 -1.125 1.125 0 0 Z " fill="#202020" transform="translate(862,122)"/>
<path d="M0 0 C0 0.66 0 1.32 0 2 C-2.3125 3.6875 -2.3125 3.6875 -5 5 C-5.99 4.67 -6.98 4.34 -8 4 C-5.57415142 1.34311822 -3.76063134 0 0 0 Z " fill="#202020" transform="translate(625,116)"/>
<path d="M0 0 C-2.5654594 2.5654594 -4.47686668 2.54046087 -8 3 C-8 2.34 -8 1.68 -8 1 C-3.375 -1.125 -3.375 -1.125 0 0 Z " fill="#222222" transform="translate(650,94)"/>
</svg>
