<?xml version="1.0" encoding="UTF-8"?>
<svg version="1.1" xmlns="http://www.w3.org/2000/svg" width="512" height="512">
<path d="M0 0 C70.17290027 -1.32548812 136.30318253 28.75170677 187.1953125 75.921875 C189.3283922 77.89060266 191.49920346 79.79513549 193.703125 81.68359375 C200.09550887 87.25241896 206.02073207 93.29100639 211.52734375 99.734375 C213.1356665 101.60615634 214.76353718 103.45139029 216.41015625 105.2890625 C230.67667891 121.31132914 242.74751712 138.61721067 253.578125 157.12109375 C253.98772461 157.80606934 254.39732422 158.49104492 254.81933594 159.19677734 C259.57017399 167.23364606 262.53616064 174.65312397 260.578125 184.12109375 C258.55049596 188.97038837 255.67686116 192.72493169 251.265625 195.62109375 C244.31797586 198.44725611 238.92829791 198.6848052 231.81640625 196.30078125 C224.8441824 192.62606641 222.02071182 187.89098722 218.578125 181.05859375 C206.86668432 158.87493201 190.95802721 139.1256106 173.578125 121.12109375 C172.98209473 120.50314941 172.38606445 119.88520508 171.77197266 119.24853516 C164.09651449 111.33550799 156.32413616 103.85850655 147.578125 97.12109375 C146.31453973 96.11789803 145.05156316 95.11393533 143.7890625 94.109375 C109.20108653 66.83792905 69.46149966 48.54439608 25.578125 43.12109375 C24.51851563 42.98960937 23.45890625 42.858125 22.3671875 42.72265625 C19.43383793 42.42530301 16.5240029 42.24368388 13.578125 42.12109375 C12.31871094 42.06824219 11.05929687 42.01539063 9.76171875 41.9609375 C-35.75561684 40.72416828 -83.59240847 56.42315333 -120.421875 83.12109375 C-121.13585449 83.63043457 -121.84983398 84.13977539 -122.58544922 84.66455078 C-132.39430012 91.66973013 -141.67764862 98.81407869 -150.421875 107.12109375 C-151.72845857 108.25295975 -153.04065162 109.37839527 -154.359375 110.49609375 C-162.70888801 117.78480797 -170.34140227 125.6822296 -177.22265625 134.3671875 C-179.48955341 137.20584202 -181.85764689 139.9365646 -184.234375 142.68359375 C-194.57606185 155.12867454 -202.76324127 169.04205045 -210.61425781 183.14941406 C-211.16823242 184.12749023 -211.72220703 185.10556641 -212.29296875 186.11328125 C-212.77693115 186.9832373 -213.26089355 187.85319336 -213.75952148 188.74951172 C-217.66418508 194.32006571 -222.92121194 196.81671927 -229.421875 198.12109375 C-236.09770592 198.51778998 -241.39457128 196.48173328 -246.421875 192.12109375 C-250.44548576 187.99005649 -251.81723083 183.83384777 -252.234375 178.12109375 C-251.8499209 169.32923562 -247.76247724 162.54898978 -243.421875 155.12109375 C-243.01501465 154.40791992 -242.6081543 153.69474609 -242.18896484 152.95996094 C-232.35370901 135.79895056 -220.55325744 119.8981569 -207.421875 105.12109375 C-206.78056641 104.39365967 -206.13925781 103.66622559 -205.47851562 102.91674805 C-199.70373401 96.42268075 -193.68888856 90.20489045 -187.546875 84.05859375 C-186.63035156 83.12982422 -185.71382813 82.20105469 -184.76953125 81.24414062 C-178.63435528 75.09602125 -172.24557454 69.49074338 -165.421875 64.12109375 C-164.70112793 63.54641357 -163.98038086 62.9717334 -163.23779297 62.37963867 C-116.07116269 24.98642887 -60.42825317 2.13844275 0 0 Z " fill="#000000" transform="translate(251.421875,197.87890625)"/>
<path d="M0 0 C25.99256863 -0.71868853 50.57515109 7.7506083 70.015625 25.15625 C70.90894531 25.95546875 71.80226563 26.7546875 72.72265625 27.578125 C90.15126285 44.05608034 102.02800387 67.95953237 103.015625 92.15625 C103.0671875 93.14109375 103.11875 94.1259375 103.171875 95.140625 C103.85011642 119.67035653 96.40872723 145.40514384 79.453125 163.65625 C77.66185289 165.51217459 75.84111464 167.33349313 74.015625 169.15625 C73.36078125 169.88199219 72.7059375 170.60773438 72.03125 171.35546875 C56.7736139 187.9497781 31.80420504 197.43529154 9.66015625 198.39453125 C-8.84532739 198.82243698 -25.49563029 195.66407888 -41.984375 187.15625 C-43.07492188 186.59808594 -44.16546875 186.03992188 -45.2890625 185.46484375 C-52.40109265 181.56499007 -58.19331768 176.80763432 -63.984375 171.15625 C-64.850625 170.33125 -65.716875 169.50625 -66.609375 168.65625 C-67.393125 167.83125 -68.176875 167.00625 -68.984375 166.15625 C-69.87189453 165.26099609 -69.87189453 165.26099609 -70.77734375 164.34765625 C-88.02746254 146.16329504 -95.39642538 120.41930075 -95.1328125 95.82421875 C-94.02755089 68.51262275 -82.03868991 43.75156879 -62.2734375 25.04296875 C-45.1808923 9.60803896 -22.84413039 1.19602777 0 0 Z M-40.984375 62.15625 C-51.0173825 75.52811081 -55.7302726 90.78171337 -53.55859375 107.41796875 C-50.63441021 123.438189 -43.03573936 136.40394248 -30.18359375 146.31640625 C-16.6264695 155.34809723 -2.11948853 158.99216168 14.08984375 156.7265625 C30.72619464 153.12831304 44.2902993 143.93119826 53.515625 129.71875 C61.94050017 114.98835494 63.86970525 100.10243184 60.0546875 83.68359375 C55.85820276 69.43763239 46.52409032 56.8935223 33.78515625 49.20703125 C8.12453248 35.62199514 -21.71889055 39.71804823 -40.984375 62.15625 Z " fill="#000000" transform="translate(251.984375,275.84375)"/>
<path d="M0 0 C1.51207031 -0.02513672 1.51207031 -0.02513672 3.0546875 -0.05078125 C8.92700156 0.64403454 12.78368916 3.60884459 17 7.5625 C18.299375 8.76519531 18.299375 8.76519531 19.625 9.9921875 C20.45 10.75789062 21.275 11.52359375 22.125 12.3125 C23.41159513 13.44329651 24.70290871 14.56875876 26 15.6875 C29.91494583 19.09729153 33.73677396 22.60589963 37.55761719 26.12011719 C40.77308258 29.0765646 44.00218803 32.01651188 47.25 34.9375 C48.04792969 35.659375 48.84585938 36.38125 49.66796875 37.125 C51.37913917 38.64845857 53.11288519 40.14677679 54.86328125 41.625 C60.56612184 46.51079107 64.52342161 50.1170503 65.42578125 57.91015625 C65.7303172 64.23580307 64.92012341 69.1586287 61.125 74.3125 C56.55388142 79.34586652 51.43574672 81.33199717 44.75 81.6875 C34.92825985 81.37595899 28.91334404 74.71912865 22.125 68.3125 C20.46246013 66.80792732 18.79582725 65.3078642 17.125 63.8125 C16.29742187 63.06742188 15.46984375 62.32234375 14.6171875 61.5546875 C12.97760121 60.07957382 11.33700345 58.60558348 9.6953125 57.1328125 C6.12810965 53.93030771 2.56589262 50.72352017 -0.9609375 47.4765625 C-1.48703613 46.9923584 -2.01313477 46.5081543 -2.55517578 46.00927734 C-4.04329263 44.63780293 -5.52951444 43.26427314 -7.015625 41.890625 C-9.01056845 40.0919055 -10.99999049 38.38933893 -13.0859375 36.70703125 C-17.55954971 32.86624094 -19.49382554 29.23743054 -20.2578125 23.375 C-20.50517714 16.77860969 -19.93923519 12.55322432 -15.875 7.3125 C-11.01834335 2.45584335 -6.89890429 0.0263317 0 0 Z " fill="#000000" transform="translate(20.875,142.6875)"/>
<path d="M0 0 C5.29188613 3.17911803 9.1786324 7.32339762 11.57421875 13.05859375 C11.91015625 15.79296875 11.91015625 15.79296875 11.94921875 18.80859375 C11.97757812 19.7934375 12.0059375 20.77828125 12.03515625 21.79296875 C10.92684709 29.6450574 6.63074487 34.55919294 0.82421875 39.62109375 C0.19660645 40.18554199 -0.43100586 40.74999023 -1.07763672 41.33154297 C-2.84951555 42.92004495 -4.63430955 44.49225924 -6.42578125 46.05859375 C-7.17601562 46.71988281 -7.92625 47.38117188 -8.69921875 48.0625 C-9.92207997 49.13314854 -11.1485873 50.19964854 -12.37890625 51.26171875 C-15.0564711 53.61225278 -17.67819829 56.02219795 -20.30078125 58.43359375 C-20.81439209 58.90450439 -21.32800293 59.37541504 -21.85717773 59.8605957 C-24.28056029 62.08308004 -26.69709128 64.31168442 -29.1015625 66.5546875 C-44.24403064 80.51966978 -44.24403064 80.51966978 -54.953125 80.328125 C-60.21691545 79.75434689 -64.59723791 77.96380557 -68.2890625 74.1171875 C-71.88549395 69.45641835 -73.57868061 65.8267178 -73.73828125 59.87109375 C-73.77566406 58.97003906 -73.81304687 58.06898438 -73.8515625 57.140625 C-72.70717195 48.85691724 -67.7058977 43.85931071 -61.67578125 38.49609375 C-60.99773437 37.87541016 -60.3196875 37.25472656 -59.62109375 36.61523438 C-55.5608186 32.9138999 -51.42381224 29.30154047 -47.28320312 25.69067383 C-44.66880946 23.39345753 -42.10896143 21.04335553 -39.55078125 18.68359375 C-38.51974126 17.73675043 -37.48848774 16.79013958 -36.45703125 15.84375 C-34.51714771 14.06243837 -32.58008142 12.27822186 -30.64453125 10.4921875 C-21.82302545 2.42794952 -12.66751332 -4.91605589 0 0 Z " fill="#000000" transform="translate(499.42578125,143.94140625)"/>
<path d="M0 0 C4.07733699 3.00343453 7.21919777 6.52868707 8.82421875 11.34375 C8.9343386 13.6520995 8.98329484 15.96350895 9.0012207 18.27441406 C9.0110775 19.32622108 9.0110775 19.32622108 9.02113342 20.39927673 C9.04083916 22.71931063 9.05252372 25.03927983 9.0625 27.359375 C9.06657553 28.15326378 9.07065105 28.94715256 9.07485008 29.76509857 C9.09570057 33.96823363 9.11000592 38.17133615 9.11938477 42.37451172 C9.13043897 46.7066443 9.16482995 51.0382618 9.20455647 55.37021255 C9.23075664 58.70919725 9.23907966 62.04805992 9.24266624 65.38713837 C9.2475245 66.98347192 9.25911682 68.57980029 9.27770424 70.17603302 C9.30216649 72.41626778 9.30111845 74.65517919 9.29418945 76.89550781 C9.30005569 78.16775208 9.30592194 79.43999634 9.31196594 80.75079346 C8.58936079 86.07381518 6.20911563 90.76777821 1.88671875 94.15625 C-4.00705498 98.36608838 -9.01493277 99.20742486 -16.17578125 98.34375 C-21.54328257 96.76284573 -25.24124242 93.70448419 -28.94921875 89.61328125 C-33.08282224 81.96479835 -32.46848156 72.86155919 -32.44140625 64.4375 C-32.4433197 63.11762085 -32.44523315 61.7977417 -32.44720459 60.43786621 C-32.45013603 57.65758527 -32.44592257 54.87743374 -32.43652344 52.09716797 C-32.42512999 48.5569605 -32.43170017 45.01705643 -32.44366837 41.47686005 C-32.45268722 38.06788324 -32.44634832 34.65898539 -32.44140625 31.25 C-32.44545471 29.99038452 -32.44950317 28.73076904 -32.45367432 27.4329834 C-32.40174315 17.61782694 -32.19790165 9.34988053 -25.08984375 2.0078125 C-17.9332504 -4.21404213 -8.09627724 -4.59829133 0 0 Z " fill="#000000" transform="translate(267.17578125,40.65625)"/>
</svg>
