<?xml version="1.0" encoding="UTF-8"?>
<svg version="1.1" xmlns="http://www.w3.org/2000/svg" width="512" height="512">
<path d="M0 0 C4.47062406 0.00020647 8.94063564 -0.02751952 13.41111279 -0.06154442 C16.89157496 -0.08376038 20.37188545 -0.08783981 23.85241127 -0.08678055 C25.50258892 -0.0891281 27.15277129 -0.09790359 28.80287743 -0.11344528 C31.09364769 -0.13307596 33.38303492 -0.12728908 35.67382812 -0.11523438 C36.97076096 -0.11808441 38.26769379 -0.12093445 39.60392761 -0.12387085 C44.86812435 0.616785 47.89854119 3.08653493 51.4934082 6.87060547 C53.89144396 12.03560555 53.87222356 16.77083427 53.1184082 22.37060547 C50.95172398 27.03730994 47.8742038 30.32516537 43.1184082 32.37060547 C39.18998254 33.01792996 35.28122286 33.02195351 31.3059082 33.05810547 C30.08121826 33.08590088 28.85652832 33.11369629 27.59472656 33.14233398 C23.96011692 33.22436932 20.32545577 33.28066142 16.69030762 33.33276367 C8.59133867 33.45192834 0.49288051 33.60216023 -7.6055603 33.75234985 C-10.73437374 33.80663559 -13.86317986 33.84952679 -16.9921875 33.89086914 C-51.93657888 34.15580148 -51.93657888 34.15580148 -84.8815918 44.37060547 C-85.55706055 44.68126953 -86.2325293 44.99193359 -86.9284668 45.31201172 C-94.14689853 49.38435705 -97.3888391 58.96557677 -99.91674805 66.42529297 C-104.56505011 83.66371971 -104.97544458 102.01451037 -105.2331543 119.75341797 C-105.25693573 121.22950412 -105.28082918 122.70558846 -105.30482483 124.18167114 C-105.37997377 128.95288327 -105.44400975 133.72421443 -105.5065918 138.49560547 C-105.52316519 139.72037849 -105.52316519 139.72037849 -105.54007339 140.96989441 C-105.87008483 165.4698774 -105.94298142 189.95820986 -105.59880829 214.45833588 C-105.56951605 216.58973574 -105.54315563 218.72115493 -105.51739502 220.8526001 C-106.74911724 264.3342601 -106.74911724 264.3342601 -91.1394043 303.47607422 C-72.09292764 322.00884922 -33.30381715 318.64966126 -8.7565918 318.99560547 C-6.45181918 319.0329734 -4.14705034 319.0705747 -1.84228516 319.10839844 C17.14621784 319.4066511 36.12839559 319.57600005 55.1184082 319.37060547 C56.13215515 319.35964844 57.1459021 319.34869141 58.19036865 319.33740234 C65.12494067 319.25901792 72.05907763 319.16278309 78.99319458 319.0512085 C81.27967789 319.01488631 83.5661983 318.98081159 85.85275269 318.94927979 C97.46159251 318.78331126 109.01238386 318.432801 120.58325195 317.44091797 C121.49613983 317.36273834 122.40902771 317.28455872 123.34957886 317.20401001 C138.09823441 315.82610676 155.15068645 313.85283966 166.0559082 302.80810547 C184.55827752 279.03863832 179.44430055 237.10209612 179.63409424 208.57543945 C179.66551912 203.94702058 179.70473145 199.31879537 179.75434875 194.69053459 C179.77411049 192.55859967 179.78265897 190.42682134 179.79064941 188.29481506 C179.97140155 170.73356462 179.97140155 170.73356462 184.4934082 164.93310547 C188.54974485 160.97334826 191.33433926 160.0676038 196.9934082 159.99560547 C202.20107727 160.09697129 205.22421454 160.67112148 209.1184082 164.37060547 C212.73631513 168.94665189 213.61718141 171.91856866 213.60424805 177.72338867 C213.60804474 178.43513245 213.61184143 179.14687622 213.61575317 179.88018799 C213.62314201 182.22770757 213.60176151 184.57397716 213.5793457 186.92138672 C213.57695517 188.57927812 213.57605724 190.23717227 213.5765686 191.89506531 C213.57344092 195.37951538 213.55690843 198.86355403 213.5300293 202.34790039 C213.49654697 206.73609013 213.48856589 211.12382237 213.48966217 215.51212406 C213.48424413 302.86402664 213.48424413 302.86402664 187.1184082 329.37060547 C186.60020508 329.92361328 186.08200195 330.47662109 185.5480957 331.04638672 C159.5993578 356.24790966 110.49501013 352.69761581 77.53098869 352.63925648 C73.66840244 352.63407629 69.80582409 352.63892035 65.9432373 352.64202881 C59.46531432 352.64563438 52.98743742 352.64096029 46.50952148 352.63134766 C39.09486969 352.62046979 31.68032802 352.62399781 24.26567888 352.63500047 C17.81896816 352.64417196 11.37228994 352.6453112 4.92557478 352.64012313 C1.11054661 352.63705681 -2.70443039 352.63644201 -6.51945496 352.64319611 C-51.72669526 352.71230975 -51.72669526 352.71230975 -73.1315918 348.05810547 C-74.16751465 347.84009277 -75.2034375 347.62208008 -76.27075195 347.39746094 C-88.4588343 344.72969972 -98.63146799 340.62898502 -108.8815918 333.37060547 C-110.4284668 332.28779297 -110.4284668 332.28779297 -112.0065918 331.18310547 C-130.8898779 314.36772966 -136.02425142 287.37679205 -137.8815918 263.37060547 C-137.96367543 262.31429648 -138.04575907 261.2579875 -138.13033009 260.16966915 C-138.76779872 251.34784561 -139.03002736 242.58645361 -139.02685547 233.73803711 C-139.02985898 232.34621086 -139.03326418 230.95438542 -139.03703308 229.56256104 C-139.04575928 225.82848129 -139.04820641 222.09442455 -139.04884887 218.36033559 C-139.04956625 216.01208151 -139.05171345 213.66383304 -139.05434608 211.31558037 C-139.06356414 203.07927971 -139.06768571 194.8429951 -139.06689453 186.60668945 C-139.06629573 179.00137371 -139.07681788 171.39612935 -139.09263819 163.79083163 C-139.10583924 157.20336873 -139.11107319 150.61592879 -139.11043912 144.02845281 C-139.11018765 140.11996178 -139.11283916 136.21153424 -139.12361717 132.30305672 C-139.31787531 56.46600111 -139.31787531 56.46600111 -119.8815918 30.37060547 C-119.31053711 29.59330078 -118.73948242 28.81599609 -118.15112305 28.01513672 C-102.91314407 9.13823739 -77.50534295 4.21625913 -54.6965332 1.77539062 C-36.48429655 0.06539855 -18.27655244 -0.00445021 0 0 Z " fill="#000000" transform="translate(186.881591796875,111.62939453125)"/>
<path d="M0 0 C1.00804687 -0.02835938 2.01609375 -0.05671875 3.0546875 -0.0859375 C9.0693147 0.8170218 13.1912897 5.19014255 17.36425781 9.35546875 C17.84959991 9.83730621 18.33494202 10.31914368 18.83499146 10.81558228 C20.42106812 12.3929313 21.99980428 13.97739318 23.578125 15.5625 C24.68547889 16.6685051 25.7931294 17.7742133 26.90106201 18.87963867 C29.21399805 21.18963598 31.52330271 23.50318707 33.83007812 25.81933594 C36.78452851 28.78520686 39.74790369 31.74197214 42.71403885 34.69615173 C44.99961565 36.97449895 47.28040447 39.2575913 49.55977631 41.54214478 C50.65073687 42.6344374 51.74317929 43.72525209 52.83713531 44.81454468 C54.36409277 46.33641596 55.88448094 47.86456367 57.40332031 49.39453125 C58.26902649 50.26182861 59.13473267 51.12912598 60.02667236 52.02270508 C63.60922543 56.03886596 64.43189717 58.89711754 64.5 64.25 C64.52835937 65.25804688 64.55671875 66.26609375 64.5859375 67.3046875 C63.50173003 74.52661182 57.26032585 79.52349278 52.3059082 84.44805908 C51.11670131 85.64194595 51.11670131 85.64194595 49.90347004 86.85995173 C47.24897835 89.52241288 44.58740459 92.1776775 41.92578125 94.83300781 C40.01995899 96.74154035 38.11452994 98.65045824 36.20956421 100.55984497 C31.57410947 105.20418395 26.93327496 109.84311076 22.29047656 114.48010734 C18.51786075 118.24820395 14.74720453 122.01825109 10.97793579 125.78969574 C10.44121256 126.32672544 9.90448933 126.86375513 9.35150176 127.41705845 C8.26114835 128.50805132 7.17079943 129.59904867 6.08045495 130.69005045 C-4.13853609 140.91474166 -14.36364346 151.13329859 -24.59085834 161.34976301 C-33.36776199 170.11772632 -42.13940152 178.8909273 -50.90722656 187.66796875 C-61.09057751 197.86201905 -71.27716023 208.05282188 -81.46893406 218.23845172 C-82.55527216 219.32415272 -83.64160609 220.40985791 -84.72793579 221.49556732 C-85.52967768 222.29684638 -85.52967768 222.29684638 -86.34761637 223.1143129 C-90.1157029 226.88067186 -93.88146218 230.64934809 -97.64633179 234.41892242 C-102.23232712 239.01052263 -106.82186 243.59855109 -111.41598678 248.18201593 C-113.76024316 250.52101109 -116.10231963 252.86211718 -118.44118118 255.20650864 C-120.97483944 257.74560587 -123.51453504 260.27850358 -126.0559082 262.80987549 C-127.16660439 263.92726384 -127.16660439 263.92726384 -128.29973888 265.06722569 C-128.98101502 265.74328634 -129.66229116 266.41934699 -130.36421204 267.11589432 C-130.94985082 267.70120839 -131.5354896 268.28652247 -132.13887501 268.88957334 C-135.87915716 272.0897547 -138.88165121 272.6298641 -143.74169922 272.66552734 C-144.92327606 272.67828705 -146.10485291 272.69104675 -147.32223511 272.70419312 C-148.5951944 272.70641876 -149.86815369 272.70864441 -151.1796875 272.7109375 C-152.49156036 272.7175943 -153.80343323 272.7242511 -155.15505981 272.73110962 C-157.93071788 272.74307195 -160.70625158 272.74679156 -163.48193359 272.74560547 C-167.02841138 272.74540238 -170.57408687 272.77269685 -174.12037468 272.80714989 C-177.51515716 272.83481565 -180.90979382 272.83356936 -184.3046875 272.8359375 C-186.20805374 272.85749405 -186.20805374 272.85749405 -188.14987183 272.87948608 C-199.32289341 272.8216095 -199.32289341 272.8216095 -203.875 268.375 C-209.09711733 262.89294842 -208.47133296 256.81867799 -208.44140625 249.671875 C-208.44760483 248.43890686 -208.45380341 247.20593872 -208.46018982 245.93560791 C-208.46728414 243.32996407 -208.46412088 240.72427487 -208.45141602 238.11865234 C-208.43759568 234.15245983 -208.47157897 230.18864806 -208.50976562 226.22265625 C-208.51071732 223.68489526 -208.5088553 221.14713134 -208.50390625 218.609375 C-208.51716446 217.43300476 -208.53042267 216.25663452 -208.54408264 215.0446167 C-208.53154953 213.9235553 -208.51901642 212.8024939 -208.50610352 211.64746094 C-208.50514175 210.67516541 -208.50417999 209.70286987 -208.50318909 208.70111084 C-206.79147824 199.63801164 -201.38508611 193.15500056 -194.97361755 186.85888672 C-194.18404209 186.063628 -193.39446662 185.26836927 -192.58096462 184.4490118 C-189.95037949 181.80557872 -187.30241354 179.18030223 -184.65405273 176.5546875 C-182.7572832 174.65605293 -180.8615229 172.75645778 -178.96694946 170.8556366 C-174.36509339 166.2431441 -169.75010738 161.64401133 -165.13048988 157.04931527 C-159.74930217 151.69612966 -154.38150285 146.32960148 -149.01421607 140.96248448 C-139.43931631 131.38877028 -129.85259951 121.82697839 -120.2590332 112.27197266 C-110.95110742 103.00143507 -101.65130853 93.72284711 -92.3605957 84.43505859 C-91.78768079 83.86232649 -91.21476587 83.28959438 -90.6244899 82.69950676 C-90.05256198 82.12775782 -89.48063407 81.55600887 -88.89137501 80.9669342 C-87.73981693 79.81574155 -86.58825538 78.66455237 -85.43669033 77.5133667 C-84.8687705 76.94563239 -84.30085068 76.37789807 -83.71572116 75.79295969 C-74.8558586 66.93666597 -65.98856328 58.0878168 -57.12053309 49.2397027 C-53.90741082 46.03360222 -50.69540928 42.82638379 -47.48421817 39.61834913 C-42.39404876 34.53322622 -37.30072151 29.45131433 -32.20066982 24.37610108 C-29.87063137 22.05728949 -27.54271143 19.736422 -25.21798515 17.41228294 C-22.69971905 14.89526978 -20.17541596 12.3844749 -17.6493988 9.87524414 C-16.54556222 8.76778493 -16.54556222 8.76778493 -15.4194259 7.6379528 C-14.74224986 6.96784235 -14.06507381 6.2977319 -13.36737728 5.60731506 C-12.78531834 5.02720704 -12.20325939 4.44709902 -11.6035623 3.84941196 C-7.90116593 0.69137855 -4.81651519 0.06127882 0 0 Z M-3.21337891 42.48632812 C-4.18125211 43.45451895 -5.14361594 44.4282365 -6.1015625 45.40625 C-6.86308121 46.17201355 -6.86308121 46.17201355 -7.63998413 46.95324707 C-9.26472835 48.58921065 -10.8823924 50.23198244 -12.5 51.875 C-13.59849988 52.98352741 -14.69745255 54.09160632 -15.796875 55.19921875 C-18.49487018 57.91929755 -21.18653427 60.64550344 -23.875 63.375 C-22.31217018 67.14103869 -19.9686525 69.51139151 -17.0859375 72.359375 C-16.62265045 72.81983215 -16.1593634 73.28028931 -15.68203735 73.75469971 C-14.20934102 75.21625078 -12.72982597 76.67067168 -11.25 78.125 C-10.24693678 79.11802611 -9.24432743 80.11151089 -8.2421875 81.10546875 C-5.79169165 83.53397941 -3.3350333 85.95614675 -0.875 88.375 C2.89103869 86.81217018 5.26139151 84.4686525 8.109375 81.5859375 C8.56983215 81.12265045 9.03028931 80.6593634 9.50469971 80.18203735 C10.96625078 78.70934102 12.42067168 77.22982597 13.875 75.75 C14.86802611 74.74693678 15.86151089 73.74432743 16.85546875 72.7421875 C19.28397941 70.29169165 21.70614675 67.8350333 24.125 65.375 C22.56404931 61.63693389 20.25070854 59.24257459 17.40625 56.390625 C16.47425781 55.45605469 15.54226563 54.52148438 14.58203125 53.55859375 C14.09686035 53.0776123 13.61168945 52.59663086 13.11181641 52.10107422 C11.62293661 50.62295152 10.14508349 49.13440089 8.66796875 47.64453125 C7.73597656 46.71511719 6.80398438 45.78570312 5.84375 44.828125 C4.55887695 43.54663574 4.55887695 43.54663574 3.24804688 42.23925781 C0.21353053 39.57463421 -0.21267838 39.77698817 -3.21337891 42.48632812 Z M-53.93692017 93.02818298 C-54.45724017 93.52915499 -54.97756016 94.03012699 -55.51364744 94.54627997 C-57.26748281 96.23795325 -59.01391603 97.93706486 -60.76025391 99.63647461 C-62.01150987 100.84739048 -63.26302669 102.05803684 -64.51478577 103.26843262 C-75.9764735 114.36777342 -87.35616067 125.55196315 -98.71549416 136.75592709 C-107.10658603 145.02983852 -115.53539175 153.26097974 -124.0184809 161.44056123 C-129.98590001 167.20159656 -135.90403371 173.01053842 -141.78915536 178.85560232 C-145.30117186 182.34089977 -148.83095123 185.80186289 -152.41624832 189.21186638 C-170.23628117 204.91706583 -170.23628117 204.91706583 -177.74506187 226.36512852 C-177.55078296 231.14555969 -177.00160863 235.72427913 -175.875 240.375 C-167.26307758 242.46647883 -157.18093516 243.78016742 -149.07079077 239.40073776 C-139.07262861 232.80821169 -130.88551276 223.36061246 -122.69515681 214.73000526 C-119.24827868 211.12546029 -115.72909881 207.59287322 -112.21742249 204.05163574 C-105.59704313 197.35394703 -99.04290476 190.59522695 -92.51093441 183.81141043 C-85.06384142 176.08362019 -77.54451879 168.42779349 -70.0186919 160.77678204 C-54.5565398 145.0542159 -39.18597895 129.24472869 -23.875 113.375 C-25.60388935 109.68495882 -27.70306951 107.28891826 -30.59375 104.390625 C-31.52574219 103.45605469 -32.45773437 102.52148438 -33.41796875 101.55859375 C-33.90313965 101.0776123 -34.38831055 100.59663086 -34.88818359 100.10107422 C-36.37706339 98.62295152 -37.85491651 97.13440089 -39.33203125 95.64453125 C-40.26402344 94.71511719 -41.19601562 93.78570312 -42.15625 92.828125 C-43.01283203 91.97379883 -43.86941406 91.11947266 -44.75195312 90.23925781 C-48.91779983 86.58120751 -50.49390319 89.69798197 -53.93692017 93.02818298 Z " fill="#000000" transform="translate(399.875,47.625)"/>
</svg>
